<svg xmlns="http://www.w3.org/2000/svg" viewBox="0 0 960 768" role="img" aria-labelledby="title desc">
  <title id="title">横须贺与三浦半岛三个巡礼打卡点示意图</title>
  <desc id="desc">示意图标出步履不停相关的三个打卡地：步履不停阶梯、步履不停公交站和步履不停陵园。</desc>
  <defs>
    <linearGradient id="sea" x1="0" x2="1" y1="0" y2="1">
      <stop offset="0" stop-color="#8fd7e5"/>
      <stop offset="1" stop-color="#74c7d8"/>
    </linearGradient>
    <filter id="shadow" x="-20%" y="-20%" width="140%" height="140%">
      <feDropShadow dx="0" dy="7" stdDeviation="7" flood-color="#244b55" flood-opacity="0.18"/>
    </filter>
  </defs>
  <rect width="960" height="768" fill="url(#sea)"/>
  <path d="M258 26 C346 48 437 61 548 48 C653 37 736 69 807 146 C866 212 864 309 817 390 C773 466 790 542 742 603 C688 672 586 691 497 673 C398 652 342 603 276 542 C206 479 138 412 129 322 C119 228 169 141 258 26Z" fill="#f8f7f1" stroke="#d7d0c4" stroke-width="3"/>
  <path d="M202 116 C286 151 361 164 447 154 C559 141 647 160 737 224" fill="none" stroke="#879ab0" stroke-width="8" stroke-linecap="round" opacity="0.55"/>
  <path d="M276 545 C363 487 461 450 573 417 C663 390 724 328 781 257" fill="none" stroke="#879ab0" stroke-width="7" stroke-linecap="round" opacity="0.48"/>
  <path d="M253 631 C321 573 380 498 454 462 C550 415 656 378 763 343" fill="none" stroke="#879ab0" stroke-width="4" stroke-linecap="round" opacity="0.42"/>
  <path d="M271 184 C331 202 402 205 463 186 C545 160 640 174 705 234" fill="none" stroke="#c9c1b4" stroke-width="4" stroke-linecap="round" opacity="0.76"/>
  <path d="M211 275 C282 303 343 302 408 279 C489 250 573 256 642 303" fill="none" stroke="#c9c1b4" stroke-width="4" stroke-linecap="round" opacity="0.76"/>
  <path d="M236 422 C315 417 392 392 465 353 C552 307 641 296 729 316" fill="none" stroke="#c9c1b4" stroke-width="4" stroke-linecap="round" opacity="0.76"/>
  <path d="M300 330 C343 310 394 304 445 318 C502 334 558 330 610 300" fill="none" stroke="#7fcb9a" stroke-width="28" stroke-linecap="round" opacity="0.24"/>
  <path d="M410 558 C473 526 542 514 604 541 C657 564 690 602 696 656 C614 687 525 686 448 654 C410 638 388 608 410 558Z" fill="#7fcb9a" opacity="0.23"/>
  <text x="624" y="194" fill="#33434b" font-family="-apple-system,BlinkMacSystemFont,Segoe UI,sans-serif" font-size="34" font-weight="700">横須賀市</text>
  <text x="342" y="710" fill="#53636c" font-family="-apple-system,BlinkMacSystemFont,Segoe UI,sans-serif" font-size="25">三浦市</text>
  <text x="168" y="232" fill="#53636c" font-family="-apple-system,BlinkMacSystemFont,Segoe UI,sans-serif" font-size="22">葉山町</text>
  <text x="704" y="246" fill="#865acb" font-family="-apple-system,BlinkMacSystemFont,Segoe UI,sans-serif" font-size="22" font-weight="700">横須賀美術館</text>
  <g filter="url(#shadow)">
    <g transform="translate(242 115)">
      <path d="M0 34 C0 15 15 0 34 0s34 15 34 34c0 29-34 67-34 67S0 63 0 34Z" fill="#e24134"/>
      <circle cx="34" cy="34" r="14" fill="#fff"/>
      <text x="82" y="23" font-family="-apple-system,BlinkMacSystemFont,Segoe UI,sans-serif" font-size="22" font-weight="700" fill="#34454d">35°17'20.8&quot;N</text>
      <text x="82" y="51" font-family="-apple-system,BlinkMacSystemFont,Segoe UI,sans-serif" font-size="22" font-weight="700" fill="#34454d">139°35'53.3&quot;E</text>
      <text x="82" y="80" font-family="-apple-system,BlinkMacSystemFont,Segoe UI,sans-serif" font-size="20" fill="#59676e">步履不停阶梯</text>
    </g>
    <g transform="translate(190 330)">
      <path d="M0 34 C0 15 15 0 34 0s34 15 34 34c0 29-34 67-34 67S0 63 0 34Z" fill="#ce2f24"/>
      <circle cx="34" cy="34" r="14" fill="#fff"/>
      <text x="-120" y="14" font-family="-apple-system,BlinkMacSystemFont,Segoe UI,sans-serif" font-size="22" font-weight="700" fill="#34454d">35°14'56.1&quot;N</text>
      <text x="-120" y="42" font-family="-apple-system,BlinkMacSystemFont,Segoe UI,sans-serif" font-size="22" font-weight="700" fill="#34454d">139°35'25.9&quot;E</text>
      <text x="-120" y="70" font-family="-apple-system,BlinkMacSystemFont,Segoe UI,sans-serif" font-size="20" fill="#59676e">步履不停公交站</text>
    </g>
    <g transform="translate(560 492)">
      <path d="M0 34 C0 15 15 0 34 0s34 15 34 34c0 29-34 67-34 67S0 63 0 34Z" fill="#e24134"/>
      <circle cx="34" cy="34" r="14" fill="#fff"/>
      <text x="-72" y="94" font-family="-apple-system,BlinkMacSystemFont,Segoe UI,sans-serif" font-size="22" font-weight="700" fill="#34454d">35°12'37.6&quot;N</text>
      <text x="-72" y="122" font-family="-apple-system,BlinkMacSystemFont,Segoe UI,sans-serif" font-size="22" font-weight="700" fill="#34454d">139°40'31.3&quot;E</text>
      <text x="-72" y="150" font-family="-apple-system,BlinkMacSystemFont,Segoe UI,sans-serif" font-size="20" fill="#59676e">步履不停陵园</text>
    </g>
  </g>
</svg>
